<svg width="158" height="25" viewBox="0 0 158 25" fill="none" xmlns="http://www.w3.org/2000/svg">
<g clip-path="url(#clip0_102_171)">
<path fill-rule="evenodd" clip-rule="evenodd" d="M13.0724 1.19478C16.7279 0.118302 20.5587 2.22035 21.6313 5.88765L8.39652 9.7848C7.32394 6.11749 9.41837 2.27126 13.0724 1.19478Z" fill="#3BAF75"/>
<path fill-rule="evenodd" clip-rule="evenodd" d="M12.4419 23.6088C17.541 22.1076 20.4616 16.7412 18.9658 11.6235L0.5 17.0598C1.99582 22.1774 7.34279 25.1086 12.4419 23.6074V23.6088Z" fill="#F0D0BE"/>
<path fill-rule="evenodd" clip-rule="evenodd" d="M12.9158 20.2587C18.0149 18.7574 20.9355 13.391 19.4397 8.27338L0.973877 13.7111C2.46969 18.8287 7.81667 21.7599 12.9158 20.2587Z" fill="#2C8056"/>
<path d="M25.6303 20.954L25.3521 14.7643L26.2666 14.7032L26.371 16.3397C26.4681 17.6926 26.9189 18.7283 27.6117 19.4324C28.3437 20.1772 29.3525 20.5569 30.4975 20.5569C31.5484 20.5569 32.4195 20.2238 33.0239 19.6361C33.6254 19.0513 33.9689 18.2105 33.9689 17.1922C33.9689 16.1913 33.5356 15.4029 32.8761 14.7264C32.1934 14.0282 31.2657 13.4405 30.3149 12.8688C29.2322 12.22 28.1045 11.5261 27.2378 10.6184C26.3522 9.69026 25.7463 8.55123 25.7463 7.03543C25.7463 5.75675 26.2724 4.68899 27.1856 3.94128C28.0886 3.19938 29.3684 2.77606 30.8816 2.77606C31.5904 2.77606 32.1745 2.85461 32.7152 2.92735C33.1645 2.98845 33.5834 3.04373 34.0284 3.04373C34.2878 3.04373 34.5458 3.04373 34.8473 2.98845L35.1126 2.94044L35.4053 8.59923L34.4878 8.66033C34.4647 8.24429 34.4154 7.78024 34.4154 7.37437C34.3704 6.37499 34.0124 5.38725 33.3355 4.68754C32.7572 4.0882 31.9412 3.70125 30.8816 3.70125C29.9308 3.70125 29.1902 3.94855 28.693 4.42424C28.2045 4.8912 27.9436 5.59091 27.9436 6.50155C27.9436 7.45438 28.3828 8.19774 29.0467 8.83926C29.7366 9.50551 30.6744 10.0714 31.6252 10.646C32.7384 11.3093 33.8965 12.028 34.7879 12.9866C35.6938 13.9613 36.3141 15.1759 36.3141 16.8096C36.3141 18.2221 35.7286 19.3931 34.7082 20.2121C33.6979 21.0253 32.2615 21.4864 30.5555 21.4864C29.7786 21.4864 28.9756 21.3599 28.248 21.2435C27.6711 21.1519 27.1436 21.0689 26.7261 21.0689C26.4507 21.0689 26.1217 21.1242 25.9304 21.178L25.6419 21.261L25.6289 20.9584L25.6303 20.954ZM39.8464 20.4376C39.097 19.7612 38.6593 18.7792 38.6593 17.518V7.5693C38.6593 7.36128 38.6013 7.19254 38.5013 7.08052C38.4071 6.97579 38.268 6.91469 38.0969 6.91469H36.9388V6.19898H40.3827C40.6074 6.19898 40.7726 6.24989 40.8929 6.36918C41.0132 6.48846 41.0654 6.6543 41.0654 6.88414V17.2809C41.0654 18.3603 41.2886 19.1822 41.6698 19.7379C42.0553 20.298 42.609 20.586 43.2613 20.586C44.5136 20.586 45.5514 19.991 46.2776 18.9509C47.0226 17.8817 47.4458 16.3412 47.4458 14.4806V7.9868C47.4458 7.45875 47.4212 7.17654 47.2965 7.0558C47.1704 6.93505 46.8791 6.91469 46.3486 6.91469H45.6659V6.20479L50.0301 6.10442C50.0301 6.23534 50.0432 6.43318 50.0272 6.55683C49.9693 6.99324 49.9113 7.42965 49.9113 7.86606V19.6622C49.9113 19.8877 49.9577 20.0361 50.0316 20.1263C50.1084 20.2209 50.2273 20.2572 50.3548 20.2572C50.4867 20.2572 50.607 20.2048 50.6911 20.103C50.7766 19.9997 50.8302 19.8426 50.8302 19.6317V19.0062H51.5434V19.6317C51.5434 20.1612 51.3245 20.5889 50.9984 20.8929C50.6317 21.2348 50.1273 21.4195 49.6431 21.4195C49.188 21.4195 48.7372 21.261 48.4155 20.938C48.1328 20.6558 47.9517 20.2514 47.9517 19.7219V17.4758C47.6299 18.593 47.1298 19.4586 46.5095 20.0957C45.5615 21.0689 44.3426 21.5097 43.0555 21.5097C41.7481 21.5097 40.6306 21.1431 39.8493 20.4376H39.8464ZM54.5335 1.58175C54.7741 1.35191 55.1133 1.22389 55.5192 1.22389C55.9149 1.22389 56.2497 1.34754 56.4888 1.58175C56.7207 1.80868 56.8555 2.13163 56.8555 2.53603C56.8555 2.93317 56.7236 3.27793 56.4845 3.52523C56.2511 3.76526 55.9221 3.90782 55.5192 3.90782C55.1235 3.90782 54.7799 3.76817 54.535 3.52232C54.2944 3.28084 54.1523 2.9419 54.1523 2.53749C54.1523 2.14327 54.29 1.81596 54.5335 1.58466V1.58175ZM54.1074 20.1438C54.2741 19.6652 54.3016 18.7443 54.3016 17.0714V7.5693C54.3016 7.36128 54.2437 7.19254 54.1436 7.08052C54.0494 6.97579 53.9103 6.91469 53.7393 6.91469H52.5812V6.19898H56.1729C56.3439 6.19898 56.4714 6.23971 56.5671 6.33572C56.6642 6.43173 56.7077 6.5612 56.7077 6.73576V17.0729C56.7077 18.7443 56.7425 19.6622 56.915 20.1423C57.0512 20.522 57.3208 20.5874 57.8049 20.5874H58.934V21.3032H52.1362V20.5874H53.2348C53.7161 20.5874 53.9784 20.522 54.1089 20.1452L54.1074 20.1438ZM72.3659 19.3422C71.0151 17.9646 70.2396 16.0066 70.2396 13.6761C70.2396 11.5552 71.1122 9.63353 72.521 8.24283C73.9299 6.85214 75.8736 5.99095 78.0158 5.99095C79.816 5.99095 81.3133 6.49864 82.3613 7.40492C83.4136 8.31411 84.0107 9.61753 84.0107 11.2046C84.0107 11.5726 83.9092 11.8854 83.7295 12.1109C83.5396 12.3495 83.2686 12.4862 82.941 12.4862H72.8906C72.8703 12.6608 72.8544 12.8368 72.8443 13.0172C72.8283 13.2645 72.8211 13.5249 72.8211 13.7969C72.8211 15.6793 73.3994 17.342 74.4198 18.5159C75.3967 19.639 76.7838 20.3198 78.4594 20.3198C79.4232 20.3198 80.4335 20.1321 81.3438 19.7161C82.1395 19.3509 82.8584 18.8112 83.4034 18.065L83.5454 17.8715L84.2832 18.4272L84.1426 18.6178C83.457 19.5401 82.5584 20.2718 81.4872 20.7693C80.4495 21.2522 79.2493 21.5141 77.926 21.5141C75.6359 21.5141 73.7154 20.7213 72.3645 19.3451L72.3659 19.3422ZM74.7213 8.23119C73.9183 9.02692 73.3385 10.163 73.0414 11.5552L81.309 11.3821C81.364 11.3821 81.4104 11.3675 81.438 11.3399C81.4684 11.3093 81.4872 11.2541 81.4872 11.1741C81.4872 9.86046 81.1292 8.80435 80.506 8.07845C79.8798 7.34819 78.9783 6.94524 77.8955 6.94524C76.6345 6.94524 75.5533 7.40638 74.7198 8.23119H74.7213ZM69.3787 7.51112H63.9186V17.8468C63.9186 18.609 64.1056 19.2375 64.4317 19.6695C64.7448 20.0827 65.1912 20.3183 65.729 20.3183C66.4653 20.3183 67.0436 20.0637 67.4379 19.6186C67.851 19.1516 68.0727 18.4679 68.0727 17.6388V16.6554H68.9946V17.6388C68.9946 18.7894 68.6554 19.7524 68.0626 20.4303C67.4611 21.1184 66.6044 21.5112 65.5811 21.5112C64.3752 21.5112 63.3664 21.1009 62.6576 20.3838C61.9489 19.6666 61.5445 18.6483 61.5445 17.4293V7.50966H58.576V6.407H60.2385C61.0024 6.407 61.5763 6.02441 61.9967 5.51527C62.7243 4.63372 62.9982 3.39576 62.9982 3.01172V0.00194298H63.9201V5.36398C63.9201 5.66364 63.8925 5.93422 63.8331 6.14224L63.8157 6.19752H69.812L69.5787 7.50966H69.3801L69.3787 7.51112ZM89.8288 21.3032H84.7818V20.5874H85.2572C85.8385 20.5874 86.1892 20.506 86.382 20.0492C86.6125 19.5037 86.682 18.4723 86.682 16.5972V4.74136C86.682 4.31805 86.6603 4.03874 86.5414 3.89618C86.4255 3.75653 86.1747 3.6998 85.7037 3.6998H84.7833V2.98408H88.6127L95.2076 16.5826C95.3033 16.7761 95.3844 16.9638 95.4497 17.1311C95.5149 16.9449 95.5932 16.747 95.67 16.5856L102.116 2.98408H106.303V3.6998H105.323C104.778 3.6998 104.497 3.80454 104.362 4.01983C104.214 4.25695 104.196 4.66281 104.196 5.21851V16.5972C104.196 18.4767 104.23 19.5139 104.432 20.0594C104.598 20.5074 104.928 20.5889 105.53 20.5889H106.303V21.3046H99.2979V20.5889H100.427C101.001 20.5889 101.316 20.5147 101.474 20.0987C101.668 19.5866 101.703 18.609 101.703 16.8358V6.13351C99.6501 10.8671 97.1919 15.6967 94.9757 20.3838L94.8684 20.7082H94.4684L94.3611 20.3838L87.6647 6.55974V16.8358C87.6647 18.6047 87.7271 19.5779 87.9488 20.0885C88.1329 20.5132 88.4779 20.5889 89.0591 20.5889H90.0694V21.3046H89.8316L89.8288 21.3032ZM108.215 20.6282C107.4 20.0376 106.954 19.188 106.954 18.1741C106.954 16.7325 107.548 15.6225 108.696 14.8719C109.811 14.1431 111.45 13.7649 113.573 13.7649H115.413V9.95211C115.413 8.94691 115.176 8.19192 114.726 7.69295C114.276 7.19545 113.597 6.94378 112.712 6.94378C111.611 6.94378 110.77 7.25509 110.186 7.77878C109.551 8.34612 109.209 9.16802 109.151 10.115C109.151 10.6271 109.057 11.2948 109.015 11.8287H108.1L108.396 6.12915L108.679 6.20479C108.77 6.22952 108.877 6.24989 108.992 6.26298C109.105 6.27753 109.221 6.2848 109.329 6.2848C109.661 6.2848 110.054 6.23098 110.504 6.16988C111.127 6.08551 111.856 5.98659 112.683 5.98659C114.342 5.98659 115.632 6.36336 116.514 7.08343C117.41 7.8166 117.878 8.89163 117.878 10.2765V19.6593C117.878 19.8848 117.925 20.0332 117.999 20.1234C118.075 20.2179 118.194 20.2543 118.322 20.2543C118.454 20.2543 118.574 20.2019 118.658 20.1001C118.744 19.9968 118.797 19.8397 118.797 19.6288V19.0033H119.51V19.6288C119.51 20.1234 119.307 20.5714 118.978 20.8944C118.651 21.2173 118.199 21.4166 117.699 21.4166C117.262 21.4166 116.868 21.2304 116.575 20.9235C116.287 20.6224 116.097 20.2019 116.066 19.7321L115.964 18.0039C115.632 19.0542 115.118 19.8252 114.513 20.3721C113.607 21.1897 112.498 21.5054 111.466 21.5054C110.095 21.5054 108.989 21.1824 108.215 20.6223V20.6282ZM110.493 15.5934C109.789 16.1753 109.419 17.0438 109.419 18.1741C109.419 18.8272 109.664 19.3582 110.061 19.7292C110.488 20.1278 111.092 20.3489 111.765 20.3489C112.692 20.3489 113.695 19.9197 114.413 18.9742C115.013 18.1843 115.414 17.0321 115.414 15.464V14.6901H113.694C112.294 14.6901 111.215 14.9999 110.495 15.5949L110.493 15.5934ZM133.27 19.3408C131.919 17.9632 131.143 16.0051 131.143 13.6747C131.143 11.5537 132.016 9.63207 133.425 8.24138C134.834 6.85068 136.777 5.9895 138.92 5.9895C140.72 5.9895 142.217 6.49719 143.265 7.40347C144.317 8.31266 144.915 9.61607 144.915 11.2032C144.915 11.5712 144.813 11.884 144.633 12.1094C144.443 12.348 144.172 12.4847 143.845 12.4847H133.794C133.774 12.6593 133.758 12.8353 133.748 13.0157C133.732 13.263 133.725 13.5234 133.725 13.7954C133.725 15.6778 134.303 17.3405 135.324 18.5145C136.301 19.6375 137.688 20.3183 139.363 20.3183C140.327 20.3183 141.337 20.1307 142.248 19.7146C143.043 19.3495 143.762 18.8098 144.307 18.0635L144.449 17.8701L145.187 18.4258L145.046 18.6163C144.361 19.5386 143.462 20.2703 142.391 20.7678C141.353 21.2508 140.153 21.5126 138.83 21.5126C136.54 21.5126 134.619 20.7198 133.268 19.3437L133.27 19.3408ZM135.625 8.22974C134.822 9.02546 134.242 10.1616 133.945 11.5537L142.213 11.3806C142.268 11.3806 142.314 11.3661 142.342 11.3384C142.372 11.3079 142.391 11.2526 142.391 11.1726C142.391 9.85901 142.033 8.80289 141.41 8.077C140.784 7.34674 139.882 6.94378 138.799 6.94378C137.538 6.94378 136.457 7.40492 135.624 8.22974H135.625ZM130.283 7.50966H124.822V17.8453C124.822 18.6076 125.009 19.236 125.336 19.6681C125.649 20.0812 126.095 20.3169 126.633 20.3169C127.369 20.3169 127.947 20.0623 128.342 19.6171C128.755 19.1502 128.977 18.4665 128.977 17.6373V16.6539H129.898V17.6373C129.898 18.788 129.559 19.751 128.966 20.4289C128.365 21.1169 127.508 21.5097 126.485 21.5097C125.279 21.5097 124.27 21.0995 123.561 20.3823C122.853 19.6652 122.448 18.6469 122.448 17.4278V7.50821H119.48V6.40554H121.142C121.906 6.40554 122.48 6.02296 122.901 5.51381C123.628 4.63226 123.902 3.39431 123.902 3.01027V0.000488281H124.824V5.36252C124.824 5.66219 124.796 5.93277 124.737 6.14079L124.72 6.19607H130.716L130.483 7.50821H130.284L130.283 7.50966ZM155.872 20.2849C154.859 21.0617 153.424 21.5097 151.712 21.5097C150.702 21.5097 149.905 21.3395 149.225 21.1955C148.744 21.0937 148.324 21.0035 147.942 21.0035C147.811 21.0035 147.663 21.0238 147.525 21.0515C147.38 21.0791 147.247 21.1155 147.147 21.1431L146.86 21.226L146.536 14.629H147.457L147.558 16.5826C147.622 17.8351 148.077 18.8083 148.774 19.4804C149.528 20.2063 150.572 20.586 151.714 20.586C152.75 20.586 153.616 20.2659 154.217 19.7117C154.814 19.1618 155.156 18.3734 155.156 17.4293C155.156 16.7296 154.756 16.1928 154.14 15.7404C153.488 15.2618 152.589 14.8734 151.653 14.4922C150.556 14.0384 149.39 13.5481 148.487 12.8673C147.551 12.1618 146.903 11.2613 146.903 10.0103C146.903 8.75343 147.439 7.75987 148.347 7.0718C149.279 6.36481 150.602 5.98804 152.128 5.98804C153.231 5.98804 153.945 6.11751 154.485 6.21498C154.794 6.27026 155.043 6.31535 155.275 6.31535C155.495 6.31535 155.743 6.28771 156.043 6.20625L156.329 6.1277L156.591 11.8272H155.674L155.601 10.5893C155.545 9.62771 155.193 8.62396 154.511 7.91407C153.952 7.32928 153.163 6.94233 152.128 6.94233C151.163 6.94233 150.372 7.14308 149.844 7.59113C149.37 7.99262 149.101 8.60796 149.101 9.47497C149.101 10.0947 149.503 10.5791 150.117 10.9937C150.773 11.4388 151.666 11.8054 152.572 12.1734C153.716 12.6419 154.929 13.1626 155.865 13.9016C156.832 14.6624 157.5 15.6444 157.5 17.0118C157.5 18.3588 156.907 19.4906 155.872 20.2849Z" fill="#333333"/>
</g>
<defs>
<clipPath id="clip0_102_171">
<rect width="157" height="24" fill="white" transform="translate(0.5 0.00177002)"/>
</clipPath>
</defs>
</svg>
