<svg width="131" height="21" viewBox="0 0 131 21" fill="none" xmlns="http://www.w3.org/2000/svg">
<g clip-path="url(#clip0_102_165)">
<path fill-rule="evenodd" clip-rule="evenodd" d="M10.4903 1.49413C13.5404 0.597059 16.7369 2.34876 17.6318 5.40485L6.58879 8.65247C5.69383 5.59639 7.44142 2.39119 10.4903 1.49413Z" fill="white"/>
<path fill-rule="evenodd" clip-rule="evenodd" d="M9.96426 20.1723C14.2189 18.9213 16.6559 14.4493 15.4078 10.1846L0 14.7148C1.2481 18.9795 5.70959 21.4221 9.96426 20.1711V20.1723Z" fill="#F0D0BE"/>
<path fill-rule="evenodd" clip-rule="evenodd" d="M10.3598 17.3808C14.6144 16.1298 17.0514 11.6578 15.8033 7.39307L0.395508 11.9245C1.64361 16.1892 6.10509 18.6319 10.3598 17.3808Z" fill="white"/>
<path d="M20.9685 17.9603L20.7363 12.8022L21.4995 12.7513L21.5865 14.115C21.6676 15.2424 22.0437 16.1056 22.6218 16.6923C23.2325 17.313 24.0743 17.6294 25.0297 17.6294C25.9065 17.6294 26.6334 17.3517 27.1377 16.862C27.6396 16.3747 27.9262 15.674 27.9262 14.8254C27.9262 13.9914 27.5646 13.3343 27.0143 12.7706C26.4447 12.1888 25.6707 11.699 24.8773 11.2226C23.9739 10.6819 23.033 10.1037 22.3098 9.34725C21.5708 8.57383 21.0653 7.62464 21.0653 6.36147C21.0653 5.2959 21.5043 4.40611 22.2662 3.78301C23.0197 3.16477 24.0876 2.812 25.3502 2.812C25.9416 2.812 26.429 2.87746 26.8801 2.93807C27.255 2.98899 27.6045 3.03505 27.9758 3.03505C28.1923 3.03505 28.4076 3.03505 28.6591 2.98899L28.8804 2.94898L29.1247 7.66464L28.3592 7.71556C28.3398 7.36885 28.2987 6.98215 28.2987 6.64393C28.2612 5.81111 27.9625 4.98799 27.3977 4.4049C26.9152 3.90545 26.2343 3.58299 25.3502 3.58299C24.5568 3.58299 23.9388 3.78908 23.524 4.18548C23.1164 4.57461 22.8987 5.15771 22.8987 5.91658C22.8987 6.7106 23.2652 7.33006 23.8191 7.86467C24.3948 8.41988 25.1773 8.89144 25.9706 9.37028C26.8994 9.92307 27.8658 10.5219 28.6095 11.3208C29.3654 12.133 29.883 13.1452 29.883 14.5066C29.883 15.6837 29.3944 16.6596 28.543 17.3421C27.7001 18.0197 26.5015 18.404 25.0781 18.404C24.4298 18.404 23.7598 18.2985 23.1527 18.2015C22.6714 18.1252 22.2311 18.0561 21.8828 18.0561C21.6531 18.0561 21.3785 18.1021 21.2189 18.147L20.9782 18.2161L20.9673 17.9639L20.9685 17.9603ZM32.8303 17.5299C32.2051 16.9663 31.8398 16.148 31.8398 15.097V6.80637C31.8398 6.63302 31.7915 6.4924 31.708 6.39905C31.6294 6.31177 31.5133 6.26086 31.3706 6.26086H30.4043V5.66443H33.2778C33.4653 5.66443 33.6032 5.70686 33.7035 5.80626C33.8039 5.90567 33.8475 6.04386 33.8475 6.2354V14.8994C33.8475 15.7989 34.0337 16.4838 34.3518 16.9469C34.6735 17.4136 35.1355 17.6536 35.6797 17.6536C36.7246 17.6536 37.5906 17.1578 38.1965 16.291C38.8181 15.4 39.1712 14.1162 39.1712 12.5658V7.15429C39.1712 6.71424 39.1507 6.47906 39.0467 6.37845C38.9415 6.27783 38.6984 6.26086 38.2557 6.26086H37.6861V5.66928L41.3276 5.58563C41.3276 5.69474 41.3385 5.8596 41.3252 5.96264C41.2768 6.32632 41.2284 6.68999 41.2284 7.05367V16.8838C41.2284 17.0717 41.2671 17.1954 41.3288 17.2705C41.3929 17.3493 41.4921 17.3796 41.5985 17.3796C41.7086 17.3796 41.8089 17.336 41.8791 17.2511C41.9504 17.1651 41.9952 17.0341 41.9952 16.8584V16.3371H42.5902V16.8584C42.5902 17.2996 42.4076 17.656 42.1355 17.9094C41.8295 18.1943 41.4086 18.3482 41.0047 18.3482C40.6249 18.3482 40.2488 18.2161 39.9803 17.947C39.7445 17.7118 39.5933 17.3748 39.5933 16.9335V15.0618C39.3248 15.9928 38.9076 16.7141 38.39 17.2451C37.599 18.0561 36.5819 18.4234 35.508 18.4234C34.4171 18.4234 33.4846 18.1179 32.8328 17.5299H32.8303ZM45.0852 1.81674C45.286 1.62521 45.569 1.51853 45.9076 1.51853C46.2378 1.51853 46.5171 1.62157 46.7167 1.81674C46.9102 2.00585 47.0227 2.27497 47.0227 2.61198C47.0227 2.94292 46.9126 3.23023 46.7131 3.43631C46.5184 3.63633 46.2438 3.75513 45.9076 3.75513C45.5774 3.75513 45.2908 3.63876 45.0864 3.43389C44.8857 3.23265 44.7671 2.9502 44.7671 2.61319C44.7671 2.28467 44.882 2.01191 45.0852 1.81917V1.81674ZM44.7297 17.2851C44.8687 16.8862 44.8917 16.1189 44.8917 14.7248V6.80637C44.8917 6.63302 44.8433 6.4924 44.7599 6.39905C44.6813 6.31177 44.5652 6.26086 44.4225 6.26086H43.4562V5.66443H46.4531C46.5958 5.66443 46.7022 5.69837 46.782 5.77838C46.863 5.85839 46.8993 5.96628 46.8993 6.11175V14.726C46.8993 16.1189 46.9283 16.8838 47.0723 17.2839C47.1859 17.6003 47.4109 17.6548 47.8148 17.6548H48.757V18.2512H43.0849V17.6548H44.0016C44.4031 17.6548 44.622 17.6003 44.7309 17.2863L44.7297 17.2851ZM59.9645 16.6171C58.8373 15.4691 58.1903 13.8374 58.1903 11.8954C58.1903 10.1279 58.9184 8.52656 60.0939 7.36764C61.2694 6.20873 62.8912 5.49108 64.6787 5.49108C66.1808 5.49108 67.4301 5.91415 68.3045 6.66939C69.1826 7.42704 69.6808 8.51322 69.6808 9.83579C69.6808 10.1425 69.5962 10.4031 69.4462 10.591C69.2878 10.7898 69.0616 10.9038 68.7883 10.9038H60.4023C60.3854 11.0493 60.3721 11.1959 60.3636 11.3463C60.3503 11.5523 60.3442 11.7693 60.3442 11.996C60.3442 13.5647 60.8268 14.9503 61.6782 15.9286C62.4933 16.8644 63.6507 17.4318 65.0488 17.4318C65.8531 17.4318 66.696 17.2754 67.4555 16.9287C68.1195 16.6244 68.7193 16.1747 69.1741 15.5528L69.2926 15.3915L69.9082 15.8546L69.7909 16.0134C69.2188 16.782 68.469 17.3918 67.5753 17.8063C66.7093 18.2088 65.7079 18.427 64.6038 18.427C62.6929 18.427 61.0904 17.7663 59.9633 16.6195L59.9645 16.6171ZM61.9298 7.35794C61.2598 8.02105 60.776 8.96782 60.5281 10.1279L67.4265 9.98368C67.4725 9.98368 67.5112 9.97156 67.5341 9.94853C67.5595 9.92307 67.5753 9.877 67.5753 9.81033C67.5753 8.71567 67.2765 7.83557 66.7565 7.23066C66.234 6.62211 65.4818 6.28631 64.5784 6.28631C63.5262 6.28631 62.624 6.6706 61.9286 7.35794H61.9298ZM57.4719 6.75788H52.9161V15.3709C52.9161 16.0062 53.0721 16.5298 53.3442 16.8899C53.6055 17.2342 53.978 17.4305 54.4266 17.4305C55.041 17.4305 55.5236 17.2184 55.8525 16.8475C56.1972 16.4583 56.3822 15.8886 56.3822 15.1976V14.3781H57.1514V15.1976C57.1514 16.1565 56.8684 16.959 56.3738 17.5239C55.8719 18.0973 55.1571 18.4246 54.3033 18.4246C53.2971 18.4246 52.4553 18.0827 51.8639 17.4851C51.2725 16.8875 50.9351 16.0389 50.9351 15.023V6.75667H48.4582V5.83778H49.8454C50.4828 5.83778 50.9617 5.51896 51.3124 5.09467C51.9195 4.36005 52.1481 3.32842 52.1481 3.00838V0.500236H52.9173V4.9686C52.9173 5.21832 52.8943 5.4438 52.8447 5.61715L52.8302 5.66322H57.8335L57.6388 6.75667H57.4731L57.4719 6.75788ZM74.5354 18.2512H70.3242V17.6548H70.7209C71.2059 17.6548 71.4986 17.5869 71.6594 17.2063C71.8517 16.7517 71.9098 15.8922 71.9098 14.3296V4.44975C71.9098 4.09699 71.8916 3.86423 71.7924 3.74543C71.6957 3.62906 71.4865 3.58178 71.0934 3.58178H70.3254V2.98535H73.5207L79.0234 14.3175C79.1033 14.4787 79.171 14.6351 79.2254 14.7745C79.2798 14.6193 79.3451 14.4545 79.4092 14.3199L84.7875 2.98535H88.2814V3.58178H87.4639C87.0091 3.58178 86.7745 3.66906 86.662 3.84848C86.5387 4.04607 86.5229 4.38429 86.5229 4.84737V14.3296C86.5229 15.8958 86.552 16.7602 86.7201 17.2148C86.8592 17.5881 87.1337 17.656 87.6368 17.656H88.2814V18.2525H82.4364V17.656H83.3785C83.8574 17.656 84.1199 17.5942 84.2517 17.2475C84.4138 16.8208 84.4428 16.0062 84.4428 14.5284V5.60988C82.7303 9.55455 80.6791 13.5792 78.8299 17.4851L78.7405 17.7554H78.4067L78.3172 17.4851L72.7297 5.96507V14.5284C72.7297 16.0025 72.7817 16.8135 72.9668 17.239C73.1204 17.593 73.4082 17.656 73.8932 17.656H74.7361V18.2525H74.5378L74.5354 18.2512ZM89.8766 17.6888C89.1969 17.1966 88.8244 16.4886 88.8244 15.6437C88.8244 14.4423 89.3203 13.5174 90.2781 12.8919C91.2082 12.2845 92.576 11.9694 94.3478 11.9694H95.8825V8.79204C95.8825 7.95437 95.6854 7.32521 95.3093 6.90941C94.9343 6.49482 94.3671 6.2851 93.6294 6.2851C92.7103 6.2851 92.0088 6.54452 91.5214 6.98093C90.9917 7.45371 90.7063 8.13864 90.6579 8.92781C90.6579 9.35452 90.5793 9.91095 90.5442 10.3558H89.7811L90.0278 5.60624L90.2636 5.66928C90.3398 5.68989 90.4293 5.70686 90.5249 5.71777C90.6192 5.72989 90.716 5.73595 90.8067 5.73595C91.0836 5.73595 91.4114 5.6911 91.7863 5.64018C92.3063 5.56987 92.9146 5.48744 93.6052 5.48744C94.9888 5.48744 96.0651 5.80141 96.8017 6.40148C97.5491 7.01245 97.9397 7.90831 97.9397 9.06237V16.8814C97.9397 17.0693 97.9784 17.1929 98.0401 17.2681C98.1042 17.3469 98.2034 17.3772 98.3098 17.3772C98.4198 17.3772 98.5202 17.3336 98.5904 17.2487C98.6617 17.1626 98.7065 17.0317 98.7065 16.8559V16.3347H99.3015V16.8559C99.3015 17.2681 99.1322 17.6415 98.8576 17.9106C98.5843 18.1797 98.207 18.3458 97.7897 18.3458C97.4257 18.3458 97.0968 18.1906 96.8525 17.9348C96.6118 17.6839 96.4534 17.3336 96.428 16.942L96.3421 15.5019C96.0651 16.3771 95.637 17.0196 95.1315 17.4754C94.3756 18.1567 93.4504 18.4197 92.5893 18.4197C91.4452 18.4197 90.5224 18.1506 89.8766 17.6839V17.6888ZM91.7778 13.4932C91.19 13.9781 90.8816 14.7018 90.8816 15.6437C90.8816 16.188 91.086 16.6305 91.4174 16.9396C91.773 17.2717 92.2773 17.456 92.8385 17.456C93.6125 17.456 94.4494 17.0984 95.048 16.3104C95.5487 15.6522 95.8837 14.6921 95.8837 13.3853V12.7403H94.4482C93.2799 12.7403 92.3801 12.9986 91.779 13.4944L91.7778 13.4932ZM110.782 16.6159C109.655 15.4679 109.008 13.8362 109.008 11.8942C109.008 10.1267 109.736 8.52534 110.912 7.36643C112.087 6.20752 113.709 5.48986 115.497 5.48986C116.999 5.48986 118.248 5.91294 119.122 6.66817C120 7.42583 120.499 8.51201 120.499 9.83458C120.499 10.1413 120.414 10.4019 120.264 10.5898C120.106 10.7886 119.879 10.9026 119.606 10.9026H111.22C111.203 11.048 111.19 11.1947 111.181 11.345C111.168 11.5511 111.162 11.7681 111.162 11.9948C111.162 13.5635 111.645 14.9491 112.496 15.9274C113.311 16.8632 114.469 17.4305 115.867 17.4305C116.671 17.4305 117.514 17.2742 118.273 16.9275C118.937 16.6232 119.537 16.1734 119.992 15.5516L120.11 15.3903L120.726 15.8534L120.609 16.0122C120.037 16.7808 119.287 17.3905 118.393 17.8051C117.527 18.2076 116.526 18.4258 115.422 18.4258C113.511 18.4258 111.908 17.7651 110.781 16.6183L110.782 16.6159ZM112.748 7.35673C112.078 8.01983 111.594 8.9666 111.346 10.1267L118.244 9.98247C118.29 9.98247 118.329 9.97035 118.352 9.94732C118.377 9.92186 118.393 9.87579 118.393 9.80912C118.393 8.71446 118.094 7.83436 117.574 7.22945C117.052 6.6209 116.3 6.2851 115.396 6.2851C114.344 6.2851 113.442 6.66939 112.746 7.35673H112.748ZM108.29 6.75667H103.734V15.3697C103.734 16.0049 103.89 16.5286 104.162 16.8887C104.423 17.2329 104.796 17.4293 105.244 17.4293C105.859 17.4293 106.341 17.2172 106.67 16.8462C107.015 16.4571 107.2 15.8874 107.2 15.1964V14.3769H107.969V15.1964C107.969 16.1553 107.686 16.9578 107.192 17.5227C106.69 18.0961 105.975 18.4234 105.121 18.4234C104.115 18.4234 103.273 18.0815 102.682 17.4839C102.09 16.8862 101.753 16.0377 101.753 15.0218V6.75546H99.2761V5.83657H100.663C101.301 5.83657 101.78 5.51775 102.13 5.09346C102.737 4.35883 102.966 3.32721 102.966 3.00717V0.499023H103.735V4.96738C103.735 5.21711 103.712 5.44259 103.663 5.61594L103.648 5.662H108.651L108.457 6.75546H108.291L108.29 6.75667ZM129.642 17.4027C128.796 18.05 127.599 18.4234 126.171 18.4234C125.328 18.4234 124.663 18.2815 124.095 18.1615C123.694 18.0767 123.343 18.0015 123.025 18.0015C122.915 18.0015 122.792 18.0185 122.677 18.0415C122.556 18.0646 122.445 18.0949 122.361 18.1179L122.122 18.187L121.852 12.6894H122.62L122.705 14.3175C122.758 15.3612 123.138 16.1722 123.719 16.7323C124.348 17.3372 125.219 17.6536 126.172 17.6536C127.037 17.6536 127.759 17.3869 128.261 16.925C128.759 16.4668 129.044 15.8098 129.044 15.023C129.044 14.4399 128.711 13.9926 128.197 13.6156C127.652 13.2168 126.902 12.8931 126.121 12.5755C125.206 12.1973 124.233 11.7887 123.48 11.2214C122.699 10.6335 122.158 9.88307 122.158 8.84053C122.158 7.79314 122.605 6.96517 123.363 6.39178C124.14 5.80263 125.244 5.48865 126.518 5.48865C127.438 5.48865 128.033 5.59654 128.484 5.67776C128.742 5.72383 128.95 5.76141 129.143 5.76141C129.327 5.76141 129.534 5.73838 129.784 5.67049L130.023 5.60503L130.242 10.3546H129.476L129.416 9.32301C129.368 8.52171 129.075 7.68525 128.506 7.09367C128.039 6.60635 127.381 6.28389 126.518 6.28389C125.712 6.28389 125.052 6.45118 124.612 6.82455C124.216 7.15914 123.991 7.67192 123.991 8.39442C123.991 8.91084 124.328 9.31452 124.839 9.66001C125.387 10.031 126.132 10.3364 126.888 10.6431C127.842 11.0335 128.854 11.4675 129.636 12.0833C130.442 12.7173 131 13.5356 131 14.6751C131 15.7976 130.505 16.7408 129.642 17.4027Z" fill="white"/>
</g>
<defs>
<clipPath id="clip0_102_165">
<rect width="131" height="20" fill="white" transform="translate(0 0.5)"/>
</clipPath>
</defs>
</svg>
